HIERARCHY
ROOT Pelvis
{
	OFFSET 0.000000 0.000000 0.000000
	CHANNELS 6 Xposition Yposition Zposition Zrotation Yrotation Xrotation 
	JOINT Left_hip
	{
		OFFSET 0.069463 -0.088608 -0.009542
		CHANNELS 3 Zrotation Yrotation Xrotation
		JOINT Left_knee
		{
			OFFSET 0.030639 -0.359740 -0.005288
			CHANNELS 3 Zrotation Yrotation Xrotation
			JOINT Left_ankle
			{
				OFFSET -0.011068 -0.376034 -0.042462
				CHANNELS 3 Zrotation Yrotation Xrotation
				JOINT Left_foot
				{
					OFFSET 0.023192 -0.053321 0.111332
					CHANNELS 3 Zrotation Yrotation Xrotation
					End Site
					{
						OFFSET 0.000000 0.000000 0.000000
					}
				}
			}
		}
	}
	JOINT Right_hip
	{
		OFFSET -0.067438 -0.088025 -0.006263
		CHANNELS 3 Zrotation Yrotation Xrotation
		JOINT Right_knee
		{
			OFFSET -0.035962 -0.366229 -0.008063
			CHANNELS 3 Zrotation Yrotation Xrotation
			JOINT Right_ankle
			{
				OFFSET 0.013608 -0.375719 -0.040481
				CHANNELS 3 Zrotation Yrotation Xrotation
				JOINT Right_foot
				{
					OFFSET -0.021034 -0.045527 0.114617
					CHANNELS 3 Zrotation Yrotation Xrotation
					End Site
					{
						OFFSET 0.000000 0.000000 0.000000
					}
				}
			}
		}
	}
	JOINT Spine1
	{
		OFFSET -0.002610 0.101823 -0.019986
		CHANNELS 3 Zrotation Yrotation Xrotation
		JOINT Spine2
		{
			OFFSET 0.004114 0.128714 -0.000938
			CHANNELS 3 Zrotation Yrotation Xrotation
			JOINT Spine3
			{
				OFFSET 0.002191 0.048470 0.027684
				CHANNELS 3 Zrotation Yrotation Xrotation
				JOINT Neck
				{
					OFFSET -0.002856 0.198873 -0.044022
					CHANNELS 3 Zrotation Yrotation Xrotation
					JOINT Head
					{
						OFFSET 0.002981 0.062960 0.049860
						CHANNELS 3 Zrotation Yrotation Xrotation
						End Site
						{
							OFFSET 0.000000 0.000000 0.000000
						}
					}
				}
				JOINT Left_collar
				{
					OFFSET 0.073708 0.112550 -0.033440
					CHANNELS 3 Zrotation Yrotation Xrotation
					JOINT Left_shoulder
					{
						OFFSET 0.083291 0.030786 -0.008013
						CHANNELS 3 Zrotation Yrotation Xrotation
						JOINT Left_elbow
						{
							OFFSET 0.245601 -0.011792 -0.027873
							CHANNELS 3 Zrotation Yrotation Xrotation
							JOINT Left_wrist
							{
								OFFSET 0.232258 0.008622 -0.000487
								CHANNELS 3 Zrotation Yrotation Xrotation
								JOINT Left_palm
								{
									OFFSET 0.077300 -0.009457 -0.012851
									CHANNELS 3 Zrotation Yrotation Xrotation
									End Site
									{
										OFFSET 0.000000 0.000000 0.000000
									}
								}
							}
						}
					}
				}
				JOINT Right_collar
				{
					OFFSET -0.075339 0.110574 -0.037874
					CHANNELS 3 Zrotation Yrotation Xrotation
					JOINT Right_shoulder
					{
						OFFSET -0.086522 0.031207 -0.009986
						CHANNELS 3 Zrotation Yrotation Xrotation
						JOINT Right_elbow
						{
							OFFSET -0.237313 -0.011478 -0.019859
							CHANNELS 3 Zrotation Yrotation Xrotation
							JOINT Right_wrist
							{
								OFFSET -0.237599 0.007976 -0.003742
								CHANNELS 3 Zrotation Yrotation Xrotation
								JOINT Right_palm
								{
									OFFSET -0.076920 -0.006943 -0.009920
									CHANNELS 3 Zrotation Yrotation Xrotation
									End Site
									{
										OFFSET 0.000000 0.000000 0.000000
									}
								}
							}
						}
					}
				}
			}
		}
	}
}
MOTION
Frames: 9
Frame Time: 0.100000
0.162202 0.514362 -1.239177 174.360174 22.754505 -67.173536 -14.681497 -12.873265 -35.870964 1.303002 18.532145 84.401570 2.239994 -4.621540 26.867656 -25.662663 17.608455 -28.564782 14.455652 6.970248 -8.429715 -9.226161 -13.673632 58.232509 -17.440127 5.556234 6.169228 32.948461 -17.453447 -8.136215 3.963117 -2.370637 56.252064 0.183342 -3.732802 6.194533 1.618394 -3.097030 -1.929531 -11.160674 -14.827223 23.795067 -0.423486 -3.288110 0.417307 -23.105901 -13.326669 7.484054 -59.463618 -17.156362 16.697376 155.600948 -58.316140 -114.078554 -6.970895 -10.057937 2.017292 4.383326 5.352302 -4.693463 12.715798 21.077164 1.548310 70.978192 4.091248 26.807029 -153.095775 63.038276 -127.986750 -6.554447 1.438543 -32.458582 -0.480554 4.305625 8.439717 
0.162125 0.514218 -1.239015 174.272325 22.587447 -66.582302 -14.352835 -13.035469 -36.551834 1.393334 18.630637 84.713450 2.180588 -4.490533 26.836003 -25.407514 17.311974 -28.217055 14.542680 7.308656 -9.121490 -9.298846 -13.829316 58.371249 -17.489870 5.805343 6.134114 33.159628 -18.099796 -8.153176 3.816032 -2.318654 56.397977 0.205935 -3.772478 5.739417 1.721901 -3.095333 -2.139138 -10.986602 -15.725895 23.168893 0.406980 -3.643872 -0.533640 -23.282323 -13.283195 7.545319 -59.452622 -16.637583 16.729868 155.049001 -58.282464 -113.488313 -7.322420 -10.046682 2.345233 4.216167 5.438722 -5.030539 12.634390 21.114370 1.518365 70.917967 3.858230 26.551666 -152.735022 63.303437 -127.483348 -5.200153 1.744118 -32.805654 -1.036005 4.237642 8.636863 
0.161724 0.514567 -1.239102 174.075551 22.415982 -65.978115 -14.045684 -13.149686 -37.469330 1.353146 18.769259 85.070033 2.140405 -4.572175 26.889077 -25.384671 16.853489 -27.915943 14.555394 7.576528 -9.943222 -9.367010 -14.076324 58.577055 -17.670343 6.315367 6.031288 33.775182 -18.975689 -8.249684 3.753488 -2.337142 56.634327 0.297480 -3.835458 5.010450 1.824932 -3.093602 -2.334194 -10.831510 -16.819297 22.703721 1.310023 -4.141811 -1.334275 -23.413375 -13.116801 7.516678 -59.583577 -16.172816 16.865295 154.451953 -58.504808 -112.784579 -7.555089 -10.027917 2.499812 3.977037 5.559229 -5.268322 12.521681 20.941894 1.382394 70.894063 3.747027 26.240193 -152.200501 63.683443 -126.681583 -3.842972 1.981250 -33.195448 -1.618830 4.214794 8.962258 
0.161205 0.514912 -1.239242 173.864436 22.253874 -64.877424 -13.451792 -13.596575 -39.015186 1.518223 19.150282 85.583836 2.080436 -4.614176 26.936671 -25.103722 15.968622 -27.156252 14.437117 8.105125 -11.381546 -9.541526 -14.452180 58.997910 -18.034749 6.968292 5.802991 34.673432 -20.396663 -8.356185 3.799948 -2.298105 56.710575 0.568616 -3.788867 4.212057 2.045731 -2.913575 -2.807484 -11.110639 -18.655170 22.397607 2.465343 -4.932171 -2.418114 -23.335083 -13.033988 7.390778 -59.760418 -15.868248 16.656079 153.028162 -57.600529 -110.960809 -10.295230 -9.934784 2.225831 3.974375 5.862909 -5.004492 12.142564 20.911683 1.357100 69.870278 4.014010 25.036512 -150.994147 63.579666 -124.288330 1.567887 3.231135 -33.292445 -3.502036 4.061543 10.115087 
0.161285 0.514805 -1.239825 173.559248 22.081263 -63.767563 -12.925183 -14.286180 -40.769474 1.925034 19.566930 86.409971 2.474724 -4.486170 26.981705 -25.398396 14.546092 -26.298780 14.331243 8.289111 -12.842069 -9.749623 -14.559428 59.215148 -17.954033 7.268756 5.910946 34.756942 -21.296123 -8.241414 4.043735 -2.079481 57.234941 0.937503 -3.649113 3.262110 2.363940 -2.628880 -2.916078 -11.507807 -21.269201 22.492707 4.155502 -6.355488 -3.591889 -22.601710 -12.479041 6.690606 -60.120730 -15.997150 15.926555 150.953731 -55.912434 -108.579724 -9.052392 -9.254868 0.728516 3.361777 5.174266 -4.500163 11.364516 20.217107 0.924816 67.197984 5.386178 21.110880 -137.343940 62.584555 -110.661258 1.024637 1.870384 -29.585721 -3.272534 4.467341 9.739970 
0.163648 0.513344 -1.241794 172.681546 21.698866 -63.596795 -12.852598 -14.163503 -42.003733 3.057362 20.982506 88.363821 3.225092 -3.884322 26.505973 -26.929552 13.541804 -25.846908 14.702725 7.516066 -12.603289 -9.660256 -14.597582 57.976743 -18.666784 7.185377 5.540568 35.501616 -20.861410 -7.143091 4.556482 -2.684420 58.793821 0.766444 -3.149674 2.322533 2.630090 -2.336057 -2.613693 -11.221309 -23.666163 21.731991 4.815925 -7.377759 -3.653947 -21.672721 -10.824208 5.555529 -60.061684 -16.690134 14.384229 148.637679 -54.128969 -104.929265 -8.162590 -9.432461 -2.176946 5.903064 4.924690 -1.517805 11.020314 20.647612 0.284603 63.160862 10.249193 15.753627 -88.622659 61.971325 -66.955288 -1.528719 -1.260023 -22.821975 -4.050844 4.290171 10.111089 
0.164649 0.513508 -1.242651 171.580621 21.220599 -63.660820 -12.960354 -14.370669 -43.864418 4.404015 23.233242 91.140570 2.645693 -3.416536 26.698607 -27.680629 12.465969 -24.802206 14.989745 6.869547 -12.907993 -9.232555 -14.897822 57.414448 -18.465423 6.833514 5.905242 34.495946 -18.308267 -4.739496 5.670702 -3.409461 60.570316 0.885043 -1.820500 2.612180 3.175760 -1.282248 -2.981027 -10.813893 -26.299851 18.625829 4.444309 -8.981136 -3.264856 -22.923540 -11.049325 4.727304 -58.931378 -17.243606 14.140225 144.675491 -52.059816 -101.617518 -8.430881 -10.275185 -5.802620 9.034509 4.509831 1.949168 13.860760 25.072883 1.334453 54.425221 17.323018 9.871948 -46.606036 45.430544 -35.588859 -1.561269 -3.191432 -16.864207 -6.142538 3.589749 11.312676 
0.165055 0.512763 -1.244055 170.638268 21.443939 -63.586115 -13.850112 -15.705605 -46.315312 5.375287 25.350312 92.660755 2.724145 -3.017588 26.512173 -28.112574 11.462119 -23.759867 14.978778 6.524052 -13.367933 -9.013997 -14.795016 56.938376 -17.570158 6.334547 6.775106 32.797942 -15.974337 -3.015441 7.183474 -3.833284 61.851178 0.953058 -0.319283 2.874793 3.720450 0.134830 -3.232890 -10.827285 -29.334316 16.185490 4.812135 -10.082437 -3.547875 -23.717569 -12.105389 3.964079 -58.528893 -17.392487 14.600560 141.397117 -50.692691 -98.738503 -9.215141 -10.750624 -7.221709 11.115412 4.396655 3.983169 15.702300 29.581655 3.130059 46.217995 21.020513 4.165098 -27.620639 27.667207 -27.124215 1.262539 -4.093391 -13.803947 -8.876398 2.766478 12.346454 
0.167586 0.511292 -1.246017 170.196685 22.056527 -63.185783 -14.166730 -16.322297 -48.833982 6.100291 27.286497 92.904012 2.476986 -3.508664 26.882344 -28.227569 11.028598 -23.459248 14.913700 6.235029 -13.851082 -9.247777 -14.419546 56.272412 -16.626878 6.068904 7.754717 31.306364 -14.418706 -3.045942 7.987705 -3.638064 62.295192 1.081609 0.407619 2.621857 3.958262 0.906385 -3.125267 -10.454338 -30.687370 14.808634 5.699741 -10.706187 -3.713663 -23.680360 -11.775684 3.398007 -58.554267 -17.225566 14.023549 140.003307 -49.760677 -97.560700 -8.777288 -10.776433 -7.406302 11.525303 3.894822 4.831152 16.704458 30.524509 4.330906 44.468476 21.268415 2.450476 -23.514386 22.254491 -24.907105 1.473058 -4.122362 -10.564490 -9.553605 2.785425 12.530359 
